<?xml version="1.0" encoding="UTF-8" standalone="no"?>
<svg width="127px" height="69px" viewBox="0 0 127 69" version="1.1" xmlns="http://www.w3.org/2000/svg" xmlns:xlink="http://www.w3.org/1999/xlink" xmlns:sketch="http://www.bohemiancoding.com/sketch/ns">
    <!-- Generator: Sketch 3.3.2 (12043) - http://www.bohemiancoding.com/sketch -->
    <title>GET</title>
    <desc>Created with Sketch.</desc>
    <defs></defs>
    <g id="Page-1" stroke="none" stroke-width="1" fill="none" fill-rule="evenodd" sketch:type="MSPage">
        <g id="Artboard-1-Copy" sketch:type="MSArtboardGroup" transform="translate(-504.000000, -2477.000000)" fill="#FFFFFF">
            <g id="Other-costumers-Copy" sketch:type="MSLayerGroup" transform="translate(-1.000000, 2379.157288)">
                <g id="GET" transform="translate(505.000000, 98.500000)" sketch:type="MSShapeGroup">
                    <path d="M105.7275,8.81675581 L105.7275,0 L98.0761519,0 L98.0761519,12.9238605 L126.306323,12.9238605 L126.306323,8.81595349 L105.7275,8.81675581 L105.7275,8.81675581 Z M73.3103481,8.22704651 C60.9624114,8.22704651 52.1326962,10.5810698 52.1326962,22.9039884 L52.1326962,26.2111744 L59.7776139,26.2111744 L59.7776139,25.251593 C59.7776139,21.7895581 58.602462,12.3365581 73.3103481,12.3365581 C88.0206456,12.3365581 86.8430823,21.7887558 86.8430823,25.251593 L86.8430823,28.3622093 L32.3632975,28.3622093 C23.101943,28.3622093 16.4786519,30.1281279 16.4786519,39.3725233 L16.4786519,45.5183372 L15.8846456,45.5183372 C7.6513481,45.5183372 7.6513481,38.4241744 7.6513481,35.8278488 L7.6513481,17.038186 C7.6513481,13.5665233 6.46815823,4.11031395 21.1800633,4.11031395 L27.0646646,4.11031395 C41.7781772,4.11031395 40.6014177,13.5665233 40.6014177,17.038186 L40.6014177,26.2119767 L48.247943,26.2119767 L48.247943,14.6841628 C48.247943,2.35723256 39.4142089,0.000802325581 27.0646646,0.000802325581 L21.1800633,0.000802325581 C8.82891139,0.000802325581 0,2.35723256 0,14.6841628 L0,38.6143256 C0,47.8627326 6.62489873,49.6310581 15.8846456,49.6310581 L16.4786519,49.6310581 L16.4786519,57.2146395 C16.4786519,66.4598372 23.101943,68.2289651 32.3632975,68.2289651 C41.6230443,68.2289651 48.247943,66.4598372 48.247943,57.2146395 L48.247943,32.4717209 L52.1326962,32.4717209 L52.1326962,38.6143256 C52.1326962,47.8627326 58.7551835,49.6310581 68.0197532,49.6310581 L90.6281646,49.6310581 L90.6281646,45.5199419 L68.0197532,45.5199419 C59.7776139,45.5199419 59.7776139,38.4257791 59.7776139,35.8294535 L59.7776139,32.5968837 L59.7776139,32.4717209 L94.492019,32.4717209 L94.492019,22.9047907 C94.492019,10.5810698 85.6550696,8.22704651 73.3103481,8.22704651 L73.3103481,8.22704651 Z M40.6014177,54.4265581 C40.6014177,57.0212791 40.6014177,64.1170465 32.3632975,64.1170465 C24.1275886,64.1170465 24.1275886,57.0212791 24.1275886,54.4265581 L24.1275886,42.1646163 C24.1275886,39.5658837 24.1275886,32.4717209 32.3632975,32.4717209 L40.6014177,32.4717209 L40.6014177,54.4265581 L40.6014177,54.4265581 Z M105.730715,35.8294535 L105.730715,21.8906512 L105.728304,21.8906512 L105.728304,15.0724884 L98.0769557,15.0724884 L98.0769557,38.6143256 C98.0769557,47.8627326 104.708285,49.6310581 113.96562,49.6310581 L124.019519,49.6310581 L124.019519,45.5199419 L113.96562,45.5199419 C105.730715,45.5199419 105.730715,38.4249767 105.730715,35.8294535 L105.730715,35.8294535 Z" id="Shape"></path>
                </g>
            </g>
        </g>
    </g>
</svg>