<?xml version="1.0" encoding="UTF-8" standalone="no"?>
<svg width="160px" height="37px" viewBox="0 0 160 37" version="1.1" xmlns="http://www.w3.org/2000/svg" xmlns:xlink="http://www.w3.org/1999/xlink" xmlns:sketch="http://www.bohemiancoding.com/sketch/ns">
    <!-- Generator: Sketch 3.3.2 (12043) - http://www.bohemiancoding.com/sketch -->
    <title>Stay.com_logo</title>
    <desc>Created with Sketch.</desc>
    <defs></defs>
    <g id="Page-1" stroke="none" stroke-width="1" fill="none" fill-rule="evenodd" sketch:type="MSPage">
        <g id="Artboard-1-Copy" sketch:type="MSArtboardGroup" transform="translate(-677.000000, -2611.000000)" fill="#FFFFFF">
            <g id="Other-costumers-Copy" sketch:type="MSLayerGroup" transform="translate(-1.000000, 2379.157288)">
                <g id="Stay.com_logo" transform="translate(678.000000, 232.000000)" sketch:type="MSShapeGroup">
                    <path d="M0.0705632306,23.3199252 L3.71536663,19.0579626 C5.62074389,21.5983178 9.22422954,23.3199252 13.0349841,23.3199252 C15.9756854,23.3199252 17.1769607,21.5983178 17.1769607,20.2049159 C17.1769607,16.3937944 3.75685441,16.4568785 3.75685441,9.05854206 C3.75685441,4.55097196 7.73321998,0.166037383 14.5673114,0.166037383 C18.9577046,0.166037383 23.0998512,1.76433645 25.5433794,4.59185047 L21.898746,8.68979439 C19.8275877,6.3131215 16.4726886,5.20637383 13.6559405,5.20637383 C11.5438045,5.20637383 9.96981934,6.51801869 9.96981934,7.99300935 C9.96981934,11.5171402 23.4392349,11.5615514 23.4727311,19.0577944 C23.4951753,24.0979626 19.41339,28.4006355 12.5792986,28.4006355 C7.15324123,28.4008037 2.39013815,26.3111215 0.0705632306,23.3199252" id="Shape"></path>
                    <path d="M30.6815728,2.79218692 L36.0414878,2.79218692 L34.8405526,8.00714019 L38.8993836,8.00714019 L37.8225717,12.5491963 L33.7635707,12.5491963 L31.8580234,21.1920561 C31.8167056,21.438 31.7753879,21.7845421 31.7753879,22.0306542 C31.7753879,23.0960187 32.3966844,23.7611776 33.7219129,23.7611776 C34.2605739,23.7611776 34.9231881,23.5609907 35.1717747,23.3555888 L35.3787035,27.5383178 C34.591966,28.0704112 33.349203,28.3997944 32.0652922,28.3997944 C28.5031243,28.3997944 26.1007439,27.0479439 26.1007439,24.0974579 C26.1007439,23.8108037 26.1420616,23.1993084 26.266525,22.7080935 L28.5031243,12.549028 L25.9565569,12.549028 L26.992221,8.03153271 C26.9923911,8.03170093 29.6778746,8.51181308 30.6815728,2.79218692" id="Shape"></path>
                    <path d="M60.5291392,30.9416636 C60.9849947,31.146729 61.81339,31.2695327 62.5586397,31.2695327 C63.6356217,31.2695327 64.3398937,30.900785 65.0439957,29.8761308 L66.2864187,28.0322243 L62.7244208,8.11598131 L68.191966,8.11598131 L70.3042721,21.8851402 L78.6710308,8.11598131 L84.4697981,8.11598131 L69.8900744,31.1465607 C67.6947928,34.6705234 65.4581934,35.9409533 62.1447821,35.9409533 C60.9849947,35.9409533 59.7420616,35.7771028 58.789373,35.4494019 L60.5291392,30.9416636 L60.5291392,30.9416636 Z" id="Shape"></path>
                    <path d="M76.9496281,28.1048972 C76.9496281,26.3022056 78.5059299,24.8001308 80.3274814,24.8001308 C81.8834431,24.8001308 83.0978108,26.0771215 83.0978108,27.6167103 C83.0978108,29.418729 81.5795962,30.9202991 79.7580446,30.9202991 C78.2022529,30.9204673 76.9496281,29.6443178 76.9496281,28.1048972" id="Shape"></path>
                    <path d="M57.7980871,21.2603551 C57.7565994,21.5068037 57.7151116,21.8345047 57.7151116,22.0802804 C57.7151116,23.1459813 57.9531562,23.8013832 59.2783847,23.8013832 C59.8168757,23.8013832 60.7280765,23.3912523 60.7280765,23.3912523 L60.9351753,27.5714579 C60.1482678,28.1040561 58.9058448,28.431757 57.621594,28.431757 C55.1122635,28.431757 53.3687566,27.7608785 52.5573645,26.332486 L52.549373,26.3180187 C50.9247184,27.6533832 48.2727311,28.3843178 46.111966,28.3843178 C46.111966,28.3843178 45.717492,28.4008037 45.5875877,28.4008037 C41.0315834,28.4008037 37.9665887,25.4499813 37.9665887,20.2049159 C37.9665887,14.2220187 41.6943677,7.62392523 48.5286291,7.62392523 C51.1794261,7.62392523 53.5818066,8.7715514 54.9072051,10.7384299 L55.445526,8.11581308 L60.7472901,8.11581308 C60.7474601,8.11598131 57.8895643,20.7962243 57.7980871,21.2603551 M54.0575558,16.8856822 C54.0575558,14.0171215 52.3179596,12.254972 49.418406,12.254972 C45.8564081,12.254972 43.4541977,15.6152523 43.4541977,19.1393832 C43.4541977,22.0077757 45.1937938,23.7702617 48.1346652,23.7702617 C51.6550053,23.7704299 54.0575558,20.451028 54.0575558,16.8856822" id="Shape"></path>
                    <path d="M84.719745,19.3698505 C84.719745,12.8689907 89.7615303,7.63553271 96.3324123,7.63553271 C100.423719,7.63553271 103.068735,9.27100935 104.432731,11.5196636 L100.506355,14.5046355 C99.68017,13.1144299 98.1509033,12.2556449 96.3324123,12.2556449 C92.5718172,12.2556449 90.0509245,15.4041308 90.0509245,19.1247477 C90.0509245,22.109215 92.282593,23.7451963 95.0513921,23.7451963 C96.7459299,23.7451963 98.2337088,22.9272897 99.2251647,21.7826916 L102.076939,25.2575327 C100.58933,26.8114206 98.0269501,28.3651402 94.5140914,28.3651402 C88.5633156,28.364972 84.719745,24.7669907 84.719745,19.3698505" id="Shape"></path>
                    <path d="M103.768587,19.410729 C103.768587,13.236729 108.562635,7.63536449 115.299129,7.63536449 C121.663082,7.63536449 125.217258,11.478785 125.217258,16.630486 C125.217258,22.7636075 120.423379,28.364972 113.645909,28.364972 C107.281955,28.364972 103.768587,24.5624299 103.768587,19.410729 M119.762295,16.875757 C119.762295,14.013757 118.02661,12.2554766 115.133858,12.2554766 C111.579341,12.2554766 109.183082,15.6083551 109.183082,19.1245794 C109.183082,21.9865794 110.918597,23.745028 113.852497,23.745028 C117.365526,23.745028 119.762295,20.433028 119.762295,16.875757" id="Shape"></path>
                    <path d="M152.656153,15.9355514 C152.697131,15.6902804 152.821424,15.1178131 152.821424,14.627271 C152.821424,13.1142617 151.498916,12.2556449 149.969819,12.2556449 C148.358087,12.2556449 146.82899,13.3936822 145.795707,14.5381121 L142.861637,27.8604673 L137.571945,27.8604673 L140.258278,15.9286542 C140.341084,15.5198692 140.464697,15.0325234 140.464697,14.5009346 C140.464697,14.5009346 140.597322,12.2943364 137.530627,12.2539626 C135.960553,12.233271 134.431116,13.4335514 133.43949,14.537271 L130.463932,27.8604673 L125.215048,27.8604673 L129.637237,8.10605607 L134.885441,8.10605607 L134.307333,10.6921682 C135.423082,9.50618692 137.456153,7.63048598 140.390053,7.63048598 C144.316429,7.63048598 145.894495,10.456486 145.894495,11.1928037 L145.894495,11.2743925 C147.4661,9.35276636 149.729564,7.63536449 152.788098,7.63536449 C155.804973,7.63536449 158.487056,9.43435514 158.487056,12.6645981 C158.487056,13.1961869 158.361403,13.9727103 158.278597,14.3000748 L156.74678,21.2410093 C156.705632,21.4862804 156.663634,21.8136449 156.663634,22.0585794 C156.663634,23.121757 156.900829,23.7758131 158.222997,23.7758131 C158.759957,23.7758131 159.421382,23.5712523 159.669458,23.3668598 L159.875707,27.5376449 C159.09118,28.068729 157.851137,28.3959252 156.570117,28.3959252 C153.01577,28.3959252 151.001743,27.0469346 151.001743,24.1030093 C151.001743,23.8166916 151.042891,23.2442243 151.167014,22.7536822 L152.656153,15.9355514 L152.656153,15.9355514 Z" id="Shape"></path>
                </g>
            </g>
        </g>
    </g>
</svg>