<?xml version="1.0" encoding="UTF-8" standalone="no"?>
<svg width="199px" height="56px" viewBox="0 0 199 56" version="1.1" xmlns="http://www.w3.org/2000/svg" xmlns:xlink="http://www.w3.org/1999/xlink" xmlns:sketch="http://www.bohemiancoding.com/sketch/ns">
    <!-- Generator: Sketch 3.3.2 (12043) - http://www.bohemiancoding.com/sketch -->
    <title>hedmark</title>
    <desc>Created with Sketch.</desc>
    <defs></defs>
    <g id="Page-1" stroke="none" stroke-width="1" fill="none" fill-rule="evenodd" sketch:type="MSPage">
        <g id="Artboard-1-Copy" sketch:type="MSArtboardGroup" transform="translate(-326.000000, -2611.000000)">
            <g id="Other-costumers-Copy" sketch:type="MSLayerGroup" transform="translate(-1.000000, 2379.157288)">
                <g id="hedmark" transform="translate(327.000000, 232.000000)" sketch:type="MSShapeGroup">
                    <g id="Group">
                        <path d="M21.1582638,55.2676923 C20.3620494,54.5732923 19.6214246,53.9323077 18.8867865,53.2852923 C16.7658287,51.4183385 14.6773696,49.5186462 12.7992957,47.3966769 C12.6923926,47.2760615 12.6111462,47.0934154 12.6000283,46.9340308 C12.458061,44.9585231 12.328922,42.9812923 12.199783,41.0057846 C12.100577,39.4903385 12.0090679,37.9740308 11.9038752,36.4603077 C11.8867707,36.2208 11.9355186,36.0881231 12.1681397,35.9632 C13.3637441,35.3179077 13.8666164,34.2366769 13.9478627,32.9254154 C14.0359509,31.5012923 13.6647833,30.1521231 13.2166454,28.8219077 C13.0113915,28.2128 13.0045497,28.2153846 12.3520131,28.2153846 C10.7843859,28.2153846 9.21675863,28.2222769 7.64913141,28.2076308 C7.37460422,28.2033231 7.26941156,28.2937846 7.18388907,28.5488 C6.77765725,29.7652923 6.40392397,30.9878154 6.36116273,32.2835692 C6.32182238,33.4578462 6.52365546,34.5588923 7.40710277,35.4187077 C7.59952837,35.6065231 7.81504504,35.7917538 8.05450801,35.9046154 C8.37008599,36.0553846 8.44192488,36.2457846 8.41199201,36.5904 C8.30081278,37.8904615 8.23325001,39.1939692 8.14772752,40.4957538 C8.13832005,40.6344615 8.122926,40.7723077 8.04167964,40.9325538 C7.89116006,40.6740923 7.73636435,40.4182154 7.59183134,40.1563077 C5.31949881,36.0700308 3.83226273,31.6873846 2.78375702,27.1419077 C1.98326652,23.6742154 1.44704051,20.16 1.07501769,16.6208 C0.679903787,12.8550154 0.436164694,9.07889231 0.374588502,5.29415385 C0.34636608,3.57538462 0.370312377,1.85575385 0.370312377,0.108553846 L48.0294298,0.108553846 C48.0294298,0.262769231 48.030285,0.402338462 48.0294298,0.541907692 C48.0106149,4.55236923 47.9028565,8.56110769 47.6069487,12.5620923 C47.1964408,18.1043692 46.4848936,23.6001231 45.0780487,28.9873231 C44.0321087,32.9926154 42.607304,36.8471385 40.5564747,40.4509538 C40.4709522,40.6017231 40.3820088,40.7507692 40.2195161,40.8868923 C40.2041221,40.7430154 40.1844519,40.6 40.1750444,40.4561231 C40.0852458,39.1181538 39.9997233,37.7810462 39.9056486,36.4430769 C39.8893993,36.2199385 39.9398576,36.0881231 40.1570847,35.9718154 C41.3569652,35.3316923 41.8666792,34.2530462 41.9513465,32.9435077 C42.0437108,31.5064615 41.6682671,30.1460923 41.2149979,28.8046769 C41.150856,28.6151385 41.0832932,28.4273231 41.0088887,28.2145231 L40.4452955,28.2145231 C38.842604,28.2145231 37.2390574,28.2196923 35.6363659,28.2076308 C35.3832194,28.2059077 35.2797371,28.2808615 35.1959251,28.5298462 C34.7837067,29.7575385 34.4065525,30.9912615 34.3655017,32.2990769 C34.3278718,33.4724923 34.5331258,34.5769846 35.4242702,35.4290462 C35.6526152,35.6461538 35.9185901,35.8365538 36.1965382,35.9830154 C36.4069235,36.0941538 36.435146,36.2173538 36.4214624,36.4301538 C36.2341681,39.2112 36.0554261,41.9931077 35.8749737,44.7750154 C35.8270811,45.5090462 35.7911616,46.2430769 35.7227436,46.9753846 C35.7073496,47.1347692 35.6107092,47.3165538 35.496109,47.4302769 C33.9909132,48.9336615 32.4985458,50.4508308 30.9540097,51.9137231 C29.8319546,52.9768615 28.6380607,53.9676308 27.4749548,54.9876923 C27.3868666,55.0660923 27.2953576,55.1358769 27.1482589,55.2564923 C27.1157603,54.8825846 27.0806961,54.5638154 27.0601707,54.2424615 C26.7728152,49.8408615 26.4863148,45.4366769 26.2006697,41.0342154 C26.1014636,39.5075692 26.0073889,37.9792 25.9021962,36.4525538 C25.8850917,36.2121846 25.9483784,36.0829538 26.1767234,35.9597538 C27.373183,35.3136 27.8709239,34.2297846 27.9496046,32.9202462 C28.0359823,31.4944 27.6631043,30.1469538 27.2158217,28.8158769 C27.1516798,28.6254769 27.0832618,28.4359385 27.0122781,28.2317538 C26.9207691,28.2265846 26.8284048,28.2153846 26.7351853,28.2153846 C25.0255907,28.2153846 23.3168514,28.2188308 21.6081121,28.2102154 C21.3900297,28.2093538 21.2874027,28.2593231 21.208722,28.4884923 C20.7870962,29.7265231 20.4065211,30.9714462 20.3629046,32.2921846 C20.3209986,33.5465846 20.5664481,34.7027692 21.5679165,35.5720615 C21.6833718,35.6711385 21.7996824,35.7900308 21.9373736,35.8425846 C22.3692622,36.0062769 22.4334041,36.2828308 22.4009055,36.7403077 C22.0630917,41.5563077 21.7603421,46.3740308 21.448185,51.1908923 C21.3703595,52.3979077 21.2968102,53.6066462 21.2181295,54.8128 C21.2104325,54.9411692 21.1847757,55.0669538 21.1582638,55.2676923 L21.1582638,55.2676923 Z M18.3420082,5.37255385 C18.3522709,5.50781538 18.3574023,5.60172308 18.367665,5.69563077 C18.4968039,6.87421538 18.6285085,8.0528 18.7559371,9.23138462 C19.0458583,11.9202462 19.3306482,14.6099692 19.6291217,17.2971077 C19.6410948,17.4065231 19.7539845,17.5383385 19.854901,17.5969231 C20.1490984,17.7683692 20.4757943,17.8846769 20.7657155,18.0630154 C21.9630304,18.7953231 22.6797088,19.8300308 22.5599774,21.2886154 C22.4573504,22.5395692 22.3093965,23.7879385 22.1152604,25.0285538 C21.9818453,25.8780308 21.7338301,26.7094154 21.531997,27.5700923 L26.8044585,27.5700923 C26.768539,27.4313846 26.7411718,27.3168 26.7103838,27.2039385 C26.1630398,25.2086154 25.7884513,23.1874462 25.7525319,21.1076923 C25.7320065,19.9213538 26.2365892,19.0227692 27.1491141,18.3421538 C27.5134399,18.0690462 27.9307897,17.8571077 28.3472842,17.6727385 C28.5858919,17.5650462 28.6868085,17.4392615 28.7098995,17.1851077 C28.7766071,16.4536615 28.86384,15.7230769 28.9433759,14.9924923 C29.2204688,12.4449231 29.4975617,9.89907692 29.7729441,7.35150769 C29.8439277,6.69673846 29.9072144,6.04110769 29.9747772,5.37255385 L18.3420082,5.37255385 L18.3420082,5.37255385 Z M12.8104136,27.5752615 C12.7693628,27.4279385 12.7385747,27.3150769 12.7069314,27.2013538 C12.1467591,25.1483077 11.7499348,23.0702769 11.7542109,20.9293538 C11.7559213,20.1169231 12.0509739,19.4294154 12.591476,18.8392615 C13.0798095,18.3076923 13.6682042,17.9191385 14.3387005,17.6667077 C14.5815844,17.5762462 14.6799352,17.4418462 14.7047368,17.1842462 C14.7953906,16.2288 14.907425,15.2750769 15.0117625,14.3204923 C15.2649091,11.9883077 15.5197661,9.6544 15.7720574,7.32135385 C15.8413306,6.67778462 15.903762,6.03335385 15.9696144,5.37944615 L4.33427974,5.37944615 C4.487365,6.80787692 4.63617413,8.2096 4.78754893,9.61046154 C5.05951045,12.1209846 5.33831376,14.6306462 5.59915735,17.1420308 C5.62737977,17.4091077 5.68639029,17.5728 5.96006226,17.6624 C6.21491927,17.7442462 6.45523747,17.8803692 6.68871386,18.0182154 C7.93306608,18.7539692 8.68737443,19.8016 8.55481457,21.3049846 C8.43422786,22.6713846 8.24864406,24.0343385 8.03825874,25.3895385 C7.92536905,26.1209846 7.70044491,26.8334769 7.5217029,27.5735385 C9.28603185,27.5752615 11.0272697,27.5752615 12.8104136,27.5752615 L12.8104136,27.5752615 Z M32.3403292,5.37513846 C32.4934145,6.80529231 32.6422236,8.20701538 32.7935984,9.60873846 C33.0655599,12.1201231 33.3443632,14.6315077 33.606062,17.1437538 C33.6342845,17.4108308 33.6967159,17.5710769 33.9686774,17.6641231 C34.2440598,17.7580308 34.5083243,17.9019077 34.7589052,18.0552615 C35.9536544,18.7875692 36.6361238,19.8110769 36.5762581,21.2756923 C36.5069849,22.9772308 36.2555487,24.6486154 35.8467512,26.2976 C35.7424138,26.7180308 35.6303793,27.1358769 35.5157792,27.5761231 L40.7754123,27.5761231 C40.7839645,27.5382154 40.7967929,27.5149538 40.7916616,27.4951385 C40.7660048,27.3908923 40.7369272,27.2892308 40.7087047,27.1858462 C40.1528086,25.144 39.7585499,23.0763077 39.7611156,20.9474462 C39.7619708,20.1065846 40.0689965,19.4018462 40.6368659,18.8004923 C41.1157918,18.2913231 41.6862268,17.9156923 42.3327768,17.6727385 C42.5936204,17.5745231 42.6928265,17.4358154 42.7159176,17.1644308 C42.778349,16.4312615 42.8681476,15.7024 42.9476835,14.9709538 C43.2247764,12.4242462 43.5018692,9.8784 43.7781069,7.33169231 C43.8482353,6.68726154 43.911522,6.04110769 43.9799399,5.37513846 C40.0920876,5.37513846 36.2435756,5.37513846 32.3403292,5.37513846 L32.3403292,5.37513846 Z" id="Shape" fill="#FFFFFF"></path>
                        <ellipse id="Oval" stroke="#FFFFFF" stroke-width="0.5" cx="10.3040275" cy="24.3686154" rx="0.55311355" ry="0.559999993"></ellipse>
                        <ellipse id="Oval" stroke="#FFFFFF" stroke-width="0.5" cx="24.2893952" cy="24.3686154" rx="0.55311355" ry="0.559999993"></ellipse>
                        <ellipse id="Oval" stroke="#FFFFFF" stroke-width="0.5" cx="38.2820513" cy="24.3686154" rx="0.55311355" ry="0.559999993"></ellipse>
                        <g transform="translate(73.549341, 2.584615)" id="Shape" fill="#FFFFFF">
                            <g>
                                <path d="M3.40379506,0.385107692 L3.40379506,8.99618462 L11.1076609,8.99618462 L11.1076609,0.385107692 L13.7212281,0.385107692 L13.7212281,20.6502154 L11.1076609,20.6502154 L11.1076609,11.1896615 L3.40379506,11.1896615 L3.40379506,20.6502154 L0.790227798,20.6502154 L0.790227798,0.385107692 L3.40379506,0.385107692 L3.40379506,0.385107692 Z"></path>
                                <path d="M29.536902,0.385107692 L29.536902,2.60701538 L21.2335236,2.60701538 L21.2335236,8.77735385 L28.8552878,8.77735385 L28.8552878,10.9984 L21.2335236,10.9984 L21.2335236,18.4300308 L29.536902,18.4300308 L29.536902,20.6510769 L18.6208115,20.6510769 L18.6208115,0.385969231 L29.536902,0.385969231 L29.536902,0.385107692 Z"></path>
                                <path d="M40.588118,0.385107692 C44.9976576,0.385107692 47.2024273,3.26436923 47.2024273,8.99618462 L47.2024273,11.6841846 C47.2024273,17.6624 44.9976576,20.6510769 40.588118,20.6510769 L33.700992,20.6510769 L33.700992,0.385969231 L40.588118,0.385969231 L40.588118,0.385107692 Z M36.313704,18.4300308 L40.588118,18.4300308 C43.2555645,18.4300308 44.5897153,16.2632615 44.5897153,11.9581538 L44.5897153,8.58436923 C44.5897153,4.60836923 43.2555645,2.60701538 40.588118,2.60701538 L36.313704,2.60701538 L36.313704,18.4300308 L36.313704,18.4300308 Z"></path>
                                <path d="M54.9062931,0.385107692 L59.7785093,12.9446154 C60.077838,13.7131077 60.6499835,15.4129231 61.4932352,17.7433846 L61.602704,17.7433846 C62.1739942,16.1805538 62.7187725,14.5074462 63.3174299,12.9446154 L68.1622789,0.385107692 L71.0212957,0.385107692 L71.0212957,20.6502154 L68.4898301,20.6502154 L68.4898301,12.3139692 C68.4898301,10.0929231 68.5984436,7.67975385 68.8438932,5.01932308 L68.7344244,5.01932308 C68.2717477,6.69243077 67.7269695,8.17341538 66.4749202,11.2990769 L62.7452845,20.6502154 L60.2685532,20.6502154 L56.3764247,11.2715077 C55.0149067,8.03556923 54.2802685,6.44516923 54.0074518,4.90904615 L53.8988382,4.90904615 C54.1434325,7.65132308 54.2520461,10.0920615 54.2520461,12.3131077 L54.2520461,20.6493538 L51.6940684,20.6493538 L51.6940684,0.384246154 L54.9062931,0.384246154 L54.9062931,0.385107692 Z"></path>
                                <path d="M83.6238897,0.385107692 L89.1503529,12.7800615 C89.6669088,13.9595077 89.9123583,15.2483692 89.9123583,16.6466462 L89.9123583,20.6502154 L87.2714239,20.6502154 L87.2714239,16.8112 L77.6082378,16.8112 L77.6082378,20.6502154 L75.022893,20.6502154 L75.022893,16.6466462 C75.022893,15.2475077 75.2666321,13.9586462 75.7848984,12.7800615 L81.3105064,0.385107692 L83.6238897,0.385107692 L83.6238897,0.385107692 Z M82.3992077,3.34707692 C82.0725118,4.36196923 81.6645695,5.43113846 81.2566272,6.41846154 L77.8254649,14.5910154 L87.0541967,14.5910154 L83.6238897,6.41932308 C83.2150922,5.432 82.8071499,4.36283077 82.506966,3.34793846 L82.3992077,3.34793846 L82.3992077,3.34707692 Z"></path>
                                <path d="M102.651788,0.385107692 C105.946115,0.385107692 107.196453,2.744 107.196453,6.22633846 C107.196453,10.2032 105.945259,12.2872615 103.658388,12.8627692 L107.524004,20.6510769 L104.665843,20.6510769 L101.072188,13.1376 L96.5266676,13.1376 L96.5266676,20.6510769 L93.9131003,20.6510769 L93.9131003,0.385969231 L102.651788,0.385969231 L102.651788,0.385107692 Z M96.5266676,10.9156923 L102.270358,10.9156923 C103.985084,10.9156923 104.856558,9.18830769 104.856558,6.52787692 C104.856558,4.38953846 104.257045,2.60701538 102.542319,2.60701538 L96.5266676,2.60701538 L96.5266676,10.9156923 L96.5266676,10.9156923 Z"></path>
                                <path d="M114.138314,0.385107692 L114.138314,8.91347692 C114.138314,9.70867692 114.110947,10.7502769 114.084435,11.6006154 C114.492377,11.0251077 115.255237,10.1196308 115.881262,9.37956923 L120.83558,3.45649231 C121.352136,2.82584615 121.624952,2.05821538 121.624952,1.18030769 L121.624952,0.385107692 L124.23852,0.385107692 L124.23852,0.906338462 C124.23852,2.38732308 123.667229,3.7856 122.550306,5.07446154 L119.202956,8.94104615 L123.993925,15.7971692 C124.919279,17.1136 125.381955,18.4843077 125.381955,19.9377231 L125.381955,20.6510769 L122.768388,20.6510769 L122.768388,19.9110154 C122.768388,18.9236923 122.523794,18.0733538 122.061117,17.3884308 L117.62421,10.6701538 L115.610156,13.0557538 C115.0936,13.6588308 114.521455,14.2076308 114.058778,14.6737231 C114.112657,15.2492308 114.140879,16.2641231 114.140879,17.5805538 L114.140879,20.6519385 L111.527312,20.6519385 L111.527312,0.386830769 L114.138314,0.386830769 L114.138314,0.385107692 Z"></path>
                            </g>
                            <g transform="translate(0.000000, 24.984615)">
                                <path d="M6.61944065,0.328246154 L6.61944065,1.53698462 L2.21503246,1.53698462 L2.21503246,5.13907692 L6.26281187,5.13907692 L6.26281187,6.34953846 L2.21503246,6.34953846 L2.21503246,11.3688615 L0.791083023,11.3688615 L0.791083023,0.328246154 L6.61944065,0.328246154 L6.61944065,0.328246154 Z"></path>
                                <path d="M9.36556777,0.328246154 L9.36556777,1.50855385 C9.36556777,1.82129231 9.44082756,2.09095385 9.58792624,2.34510769 L11.9312424,6.44 L14.2899527,2.34510769 C14.4387618,2.09095385 14.5123112,1.82215385 14.5123112,1.50855385 L14.5123112,0.328246154 L15.8917889,0.328246154 L15.8917889,1.4336 C15.8917889,1.8368 15.7130469,2.34510769 15.3735226,2.95766154 L12.6137119,7.75298462 L12.6137119,11.3688615 L11.1906177,11.3688615 L11.1906177,7.75298462 L8.35811285,2.95766154 C8.07674386,2.48036923 7.94332877,1.97033846 7.94332877,1.4336 L7.94332877,0.328246154 L9.36556777,0.328246154 L9.36556777,0.328246154 Z"></path>
                                <path d="M19.3357795,0.328246154 L19.3357795,10.1584 L23.5315128,10.1584 L23.5315128,11.3688615 L17.9109749,11.3688615 L17.9109749,0.328246154 L19.3357795,0.328246154 L19.3357795,0.328246154 Z"></path>
                                <path d="M26.9763587,0.328246154 L26.9763587,4.97538462 C26.9763587,5.40873846 26.9609646,5.97563077 26.9464258,6.44 C27.1687843,6.12553846 27.5844236,5.63187692 27.9256583,5.22953846 L30.6247481,2.00135385 C30.9069723,1.65846154 31.0549262,1.23975385 31.0549262,0.762461538 L31.0549262,0.329107692 L32.4788756,0.329107692 L32.4788756,0.611692308 C32.4788756,1.41981538 32.1675738,2.18141538 31.5586536,2.88356923 L29.734459,4.99089231 L32.3454605,8.72566154 C32.8500432,9.4416 33.1023346,10.1894154 33.1023346,10.9820308 L33.1023346,11.3697231 L31.6792404,11.3697231 L31.6792404,10.9665231 C31.6792404,10.4280615 31.5441148,9.96455385 31.2926787,9.59150769 L28.8749579,5.92996923 L27.7777044,7.23003077 C27.4954802,7.56086154 27.1850336,7.85809231 26.9327422,8.11224615 C26.9626751,8.42498462 26.9780691,8.97895385 26.9780691,9.69661538 L26.9780691,11.3688615 L25.5541197,11.3688615 L25.5541197,0.328246154 L26.9763587,0.328246154 L26.9763587,0.328246154 Z"></path>
                                <path d="M41.2167083,0.328246154 L41.2167083,1.53698462 L36.6934239,1.53698462 L36.6934239,4.89870769 L40.846396,4.89870769 L40.846396,6.10830769 L36.6934239,6.10830769 L36.6934239,10.1575385 L41.2167083,10.1575385 L41.2167083,11.368 L35.2694744,11.368 L35.2694744,0.327384615 L41.2167083,0.327384615 L41.2167083,0.328246154 Z"></path>
                                <path d="M48.0713358,5.18387692 C49.4508136,5.66116923 50.8311465,6.33489231 50.8311465,8.32246154 C50.8311465,10.1739077 49.5252181,11.5644308 46.8261284,11.5644308 C44.6162273,11.5644308 43.4445692,10.4737231 43.2076719,8.48701538 L44.6316213,8.48701538 C44.8095081,9.66732308 45.4911223,10.3539692 46.8115896,10.3539692 C48.6657171,10.3539692 49.5106793,9.45710769 49.5106793,8.44135385 C49.5106793,7.03790769 48.6212454,6.72344615 47.6274741,6.39433846 L46.0555708,5.87224615 C44.6461601,5.4096 43.5189737,4.51273846 43.5189737,2.85341538 C43.5189737,1.04590769 44.7641812,0.119753846 46.9740823,0.119753846 C49.4508136,0.119753846 50.5044506,1.04590769 50.5634611,3.10756923 L49.1993774,3.10756923 C49.1685894,1.80750769 48.2791555,1.33107692 47.0040152,1.33107692 C45.535594,1.33107692 44.8377305,1.86867692 44.8377305,2.82498462 C44.8377305,3.98978462 45.6844032,4.36369231 46.3514786,4.58769231 L48.0713358,5.18387692 L48.0713358,5.18387692 Z"></path>
                                <path d="M54.6146614,0.328246154 L54.6146614,4.97538462 C54.6146614,5.40873846 54.5992674,5.97563077 54.5855838,6.44 C54.8079423,6.12553846 55.2235816,5.63187692 55.5648163,5.22953846 L58.2639061,2.00135385 C58.545275,1.65846154 58.6932289,1.23975385 58.6932289,0.762461538 L58.6932289,0.329107692 L60.1180336,0.329107692 L60.1180336,0.611692308 C60.1180336,1.41981538 59.8058765,2.18141538 59.1986669,2.88356923 L57.3736169,4.99089231 L59.9846185,8.72566154 C60.488346,9.4416 60.7414926,10.1894154 60.7414926,10.9820308 L60.7414926,11.3697231 L59.3166879,11.3697231 L59.3166879,10.9665231 C59.3166879,10.4280615 59.1832728,9.96455385 58.9318367,9.59150769 L56.5141159,5.92996923 L55.4168624,7.23003077 C55.1354934,7.56086154 54.8241915,7.85809231 54.5719002,8.11224615 C54.6009778,8.42498462 54.6163719,8.97895385 54.6163719,9.69661538 L54.6163719,11.3688615 L53.1932777,11.3688615 L53.1932777,0.328246154 L54.6146614,0.328246154 L54.6146614,0.328246154 Z"></path>
                                <path d="M61.9148611,3.68824615 C61.9148611,1.31298462 63.2199343,0.118030769 65.8163971,0.118030769 C68.4128598,0.118030769 69.7170778,1.31298462 69.7170778,3.68824615 L69.7170778,7.99335385 C69.7170778,10.3686154 68.4128598,11.5635692 65.8163971,11.5635692 C63.2199343,11.5635692 61.9148611,10.3686154 61.9148611,7.99335385 L61.9148611,3.68824615 L61.9148611,3.68824615 Z M63.3396658,8.1424 C63.3396658,9.61993846 64.1709444,10.3522462 65.8163971,10.3522462 C67.4635602,10.3522462 68.2931283,9.61907692 68.2931283,8.1424 L68.2931283,3.5392 C68.2931283,2.06166154 67.4635602,1.32935385 65.8163971,1.32935385 C64.1700891,1.32935385 63.3396658,2.06252308 63.3396658,3.5392 L63.3396658,8.1424 L63.3396658,8.1424 Z"></path>
                                <path d="M73.9179424,0.328246154 L76.5725605,7.17058462 C76.7359084,7.58843077 77.0472103,8.51630769 77.5064661,9.78535385 L77.567187,9.78535385 C77.8767784,8.93415385 78.1743967,8.02178462 78.5002374,7.17058462 L81.1411718,0.328246154 L82.6976811,0.328246154 L82.6976811,11.3688615 L81.3190586,11.3688615 L81.3190586,6.82683077 C81.3190586,5.61723077 81.3780691,4.30166154 81.5123394,2.85255385 L81.4524737,2.85255385 C81.2001824,3.76578462 80.9042746,4.57046154 80.2226603,6.27458462 L78.190646,11.3697231 L76.8411011,11.3697231 L74.7201434,6.25907692 C73.9786634,4.49636923 73.5792734,3.63138462 73.4304642,2.79396923 L73.3705985,2.79396923 C73.5040136,4.28787692 73.5647346,5.61723077 73.5647346,6.82769231 L73.5647346,11.3697231 L72.1698628,11.3697231 L72.1698628,0.329107692 L73.9179424,0.329107692 L73.9179424,0.328246154 Z"></path>
                                <path d="M87.1217595,0.328246154 L89.7763776,7.17058462 C89.9388703,7.58843077 90.2510274,8.51630769 90.7111384,9.78535385 L90.7701489,9.78535385 C91.0814507,8.93415385 91.3782138,8.02178462 91.7049097,7.17058462 L94.3441337,0.328246154 L95.9014982,0.328246154 L95.9014982,11.3688615 L94.5220205,11.3688615 L94.5220205,6.82683077 C94.5220205,5.61723077 94.5818862,4.30166154 94.7161565,2.85255385 L94.6562908,2.85255385 C94.4048547,3.76578462 94.1072364,4.57046154 93.4264774,6.27458462 L91.394463,11.3697231 L90.0449182,11.3697231 L87.9239604,6.25907692 C87.1833357,4.49636923 86.7822352,3.63138462 86.6334261,2.79396923 L86.5744156,2.79396923 C86.7078307,4.28787692 86.7676964,5.61723077 86.7676964,6.82769231 L86.7676964,11.3697231 L85.3745351,11.3697231 L85.3745351,0.329107692 L87.1217595,0.329107692 L87.1217595,0.328246154 Z"></path>
                                <path d="M99.969803,0.328246154 L99.969803,8.1424 C99.969803,9.61993846 100.859237,10.3522462 102.505545,10.3522462 C104.152708,10.3522462 104.952343,9.61907692 104.952343,8.1424 L104.952343,0.328246154 L106.317282,0.328246154 L106.317282,7.99335385 C106.317282,10.3686154 105.012209,11.5635692 102.415746,11.5635692 C99.8209939,11.5635692 98.5150655,10.3686154 98.5150655,7.99335385 L98.5150655,0.328246154 L99.969803,0.328246154 L99.969803,0.328246154 Z"></path>
                                <path d="M110.710572,0.328246154 L113.943322,6.67778462 C114.52231,7.81243077 114.99696,8.94966154 115.529765,10.0843077 L115.590486,10.0843077 C115.499832,9.26153846 115.470754,7.75298462 115.470754,6.20049231 L115.470754,0.328246154 L116.761288,0.328246154 L116.761288,11.3688615 L114.906306,11.3688615 L111.836904,5.43716923 C111.228839,4.25686154 110.665245,3.01710769 110.18974,1.8816 L110.131585,1.8816 C110.204279,3.25661538 110.250461,4.55495385 110.250461,5.78006154 L110.250461,11.368 L108.945388,11.368 L108.945388,0.327384615 L110.710572,0.327384615 L110.710572,0.328246154 Z"></path>
                                <path d="M125.380245,0.328246154 L125.380245,1.53698462 L120.85696,1.53698462 L120.85696,4.89870769 L125.010788,4.89870769 L125.010788,6.10830769 L120.85696,6.10830769 L120.85696,10.1575385 L125.380245,10.1575385 L125.380245,11.368 L119.433866,11.368 L119.433866,0.327384615 L125.380245,0.327384615 L125.380245,0.328246154 Z"></path>
                            </g>
                        </g>
                    </g>
                </g>
            </g>
        </g>
    </g>
</svg>