<?xml version="1.0" encoding="UTF-8" standalone="no"?>
<svg width="137px" height="44px" viewBox="0 0 137 44" version="1.1" xmlns="http://www.w3.org/2000/svg" xmlns:xlink="http://www.w3.org/1999/xlink" xmlns:sketch="http://www.bohemiancoding.com/sketch/ns">
    <!-- Generator: Sketch 3.3.2 (12043) - http://www.bohemiancoding.com/sketch -->
    <title>Redningsselskapet</title>
    <desc>Created with Sketch.</desc>
    <defs></defs>
    <g id="Page-1" stroke="none" stroke-width="1" fill="none" fill-rule="evenodd" sketch:type="MSPage">
        <g id="Artboard-1-Copy" sketch:type="MSArtboardGroup" transform="translate(-989.000000, -2607.000000)" fill="#FFFFFF">
            <g id="Other-costumers-Copy" sketch:type="MSLayerGroup" transform="translate(-1.000000, 2379.157288)">
                <g id="Redningsselskapet" transform="translate(990.000000, 228.000000)" sketch:type="MSShapeGroup">
                    <g id="Group">
                        <path d="M123.062383,29.2091724 C122.625037,29.1011954 122.208516,29.0005517 121.793,28.8948506 C119.293377,28.2603908 116.788736,27.6489425 114.265778,27.1156322 C112.234364,26.6862529 110.192663,26.320092 108.135154,26.0452184 C107.302364,25.9342069 106.464808,25.8563218 105.629258,25.7665517 C105.52287,25.7551724 105.414223,25.7650345 105.281238,25.7650345 C105.301311,26.048 105.310093,26.312 105.339952,26.5737241 C105.438311,27.4324828 105.525881,28.2925057 105.651088,29.1472184 C105.828234,30.3569655 106.015167,31.5662069 106.233212,32.7691264 C106.885342,36.3657471 107.770322,39.9095172 108.639495,43.4568276 C108.661073,43.5455862 108.67939,43.6351034 108.702976,43.7405517 L94.3147143,43.7405517 C94.3367949,43.6388966 94.3538571,43.5501379 94.3749341,43.4618851 C94.9623278,40.981954 95.5707985,38.5070805 96.1308425,36.0210805 C96.5877601,33.9932874 96.9799414,31.9505747 97.2599634,29.8886437 C97.400978,28.8503448 97.5181557,27.8087586 97.6448681,26.7686897 C97.6769853,26.5044368 97.7053388,26.2394253 97.7326886,25.9746667 C97.7389615,25.9127126 97.7336923,25.8494943 97.7336923,25.7516322 C97.4042399,25.7764138 97.0961154,25.7862759 96.7917546,25.8242069 C95.6857179,25.9617701 94.5764194,26.0803678 93.4766557,26.2586437 C91.9884744,26.5003908 90.503304,26.7669195 89.0254103,27.0642989 C86.0485458,27.6631034 83.1075623,28.4191954 80.1630659,29.1585977 C80.1020934,29.174023 80.0393645,29.1831264 79.9565623,29.1990575 L79.9565623,14.6750115 C80.0918059,14.704092 80.2155073,14.7276092 80.3379542,14.7574483 C82.6303205,15.3132644 84.9186722,15.8870345 87.2158059,16.4221149 C89.6118004,16.9802069 92.0273663,17.441954 94.4660165,17.7694253 C95.4709341,17.9042069 96.4803681,18.0023218 97.4882967,18.1153563 C97.5590549,18.1231954 97.6313187,18.1163678 97.734696,18.1163678 C97.7151245,17.8270805 97.7050879,17.5552414 97.6767344,17.2854253 C97.615511,16.7002759 97.558804,16.1143678 97.4744963,15.5322529 C97.2885678,14.2491724 97.109163,12.9643218 96.8871026,11.6870575 C96.2266923,7.8856092 95.2927839,4.14485057 94.3716722,0.401816092 C94.3521007,0.32216092 94.3377985,0.241241379 94.3174744,0.143632184 L108.708496,0.143632184 C108.61365,0.532045977 108.522317,0.906804598 108.430231,1.28131034 C107.789894,3.88110345 107.15859,6.48266667 106.62163,9.10673563 C106.265581,10.8462529 105.933117,12.5903218 105.704282,14.352092 C105.559002,15.4730805 105.444333,16.5981149 105.315864,17.7213793 C105.302315,17.8392184 105.288515,17.9568046 105.272205,18.0986667 C105.357767,18.1065057 105.428275,18.1254713 105.495771,18.1176322 C106.80254,17.9631264 108.112822,17.8356782 109.41357,17.6427356 C113.733335,17.0024598 117.965782,15.9469655 122.195971,14.8831264 C122.478502,14.812069 122.761033,14.7412644 123.062132,14.665908 C123.062383,19.5241149 123.062383,24.354 123.062383,29.2091724 L123.062383,29.2091724 Z" id="Shape"></path>
                        <path d="M7.19400549,43.7395402 L0.179404762,43.7395402 C0.162593407,43.7243678 0.154815018,43.7188046 0.148542125,43.711977 C0.143272894,43.7054023 0.136247253,43.6975632 0.13524359,43.6894713 C0.129974359,43.643954 0.122195971,43.5981839 0.122195971,43.5524138 C0.122195971,29.114092 0.122948718,14.6762759 0.124705128,0.237954023 C0.124705128,0.21216092 0.137250916,0.18662069 0.151804029,0.130988506 L0.469212454,0.130988506 L12.7726154,0.130988506 C14.6035476,0.130735632 16.4342289,0.127195402 18.2651612,0.129724138 C20.9961282,0.133264368 23.3988974,1.03728736 25.4338242,2.86910345 C27.3061575,4.55450575 28.46313,6.65993103 28.8610824,9.16565517 C28.9559286,9.76344828 28.9975806,10.3743908 29.0073663,10.980023 C29.0284432,12.3177241 29.0108791,13.6554253 29.0146429,14.9931264 C29.0221703,17.7527356 28.144467,20.1861379 26.3464048,22.2672874 C24.8665037,23.9797471 23.0157491,25.093908 20.8290183,25.6423908 C20.7514853,25.6616092 20.675207,25.6853793 20.5763462,25.7129425 C23.7203205,31.7275402 26.852,37.7183678 29.9987344,43.738023 L21.9917619,43.738023 C18.9022363,37.8228046 15.8016703,31.8873563 12.6955842,25.9405287 L7.20078022,25.9405287 C7.18547436,26.6748736 7.1957619,27.407954 7.19425641,28.1407816 C7.19224908,28.8882759 7.19375458,29.6352644 7.19375458,30.3827586 L7.19375458,32.5969195 L7.19375458,34.8386437 L7.19375458,37.0528046 L7.19375458,39.2669655 L7.19375458,41.5089425 C7.19400549,42.2453103 7.19400549,42.9809195 7.19400549,43.7395402 L7.19400549,43.7395402 Z M7.20830769,18.7885057 L7.5445348,18.7885057 C11.1057821,18.7885057 14.6667784,18.7897701 18.2280256,18.7862299 C18.4736722,18.785977 18.7218278,18.7662529 18.9647143,18.7278161 C20.6147363,18.4658391 21.9247674,16.9235632 21.929033,15.2396782 C21.9325458,13.7730115 21.9327967,12.3058391 21.9262729,10.8391724 C21.9250183,10.6108276 21.899174,10.3781839 21.8502454,10.1551494 C21.4798938,8.46216092 20.0486703,7.27871264 18.322119,7.27314943 C14.6881062,7.26151724 11.0535916,7.26910345 7.41957875,7.26986207 C7.34957326,7.26986207 7.27931685,7.28225287 7.20830769,7.28908046 L7.20830769,18.7885057 L7.20830769,18.7885057 Z" id="Shape"></path>
                        <path d="M32.3204579,28.7228966 L39.3822308,28.7228966 C39.3869982,28.8207586 39.3960311,28.9178621 39.3960311,29.0147126 C39.3970348,30.2972874 39.3985403,31.5798621 39.3960311,32.8624368 C39.3945256,33.7414253 39.6356557,34.5392414 40.1881722,35.2242759 C40.9047875,36.1131264 41.8369396,36.5857471 42.9776026,36.5895402 C45.5045751,36.5981379 48.0315476,36.5956092 50.5585201,36.5913103 C52.5374927,36.5875172 54.1350733,34.9714023 54.1375824,32.980023 C54.1385861,32.0666437 54.1380842,31.1530115 54.1375824,30.2396322 C54.1363278,28.5914023 53.0724451,27.176069 51.4884139,26.7509885 C49.4655311,26.208069 47.43763,25.6833563 45.4119872,25.1505517 C43.6608462,24.6898161 41.9066941,24.2394483 40.1590659,23.7653103 C36.3037454,22.7196782 33.2869853,19.4368736 32.531478,15.4905287 C32.3904634,14.7551724 32.3179487,14.0150115 32.3204579,13.2665057 C32.3234689,12.4176092 32.3169451,11.5689655 32.3307454,10.720069 C32.3540806,9.28273563 32.6491575,7.89875862 33.25537,6.59873563 C34.8529505,3.17154023 37.5058828,1.08583908 41.1963516,0.36691954 C41.749119,0.259195402 42.3234652,0.225563218 42.8880256,0.222275862 C45.4240311,0.207103448 47.9602875,0.21645977 50.496293,0.215701149 C53.2834652,0.214689655 55.7130824,1.16549425 57.7615586,3.05774713 C59.538293,4.69889655 60.6347949,6.73503448 61.0595952,9.13227586 C61.1740128,9.77836782 61.2236941,10.4292644 61.2226905,11.0849655 C61.2214359,12.0628276 61.2224396,13.0409425 61.2224396,14.0190575 L61.2224396,14.2605517 C61.0134267,14.3222529 54.4728059,14.335908 54.1378333,14.2742069 L54.1378333,13.9841609 C54.1378333,12.9784828 54.1393388,11.9728046 54.1378333,10.9671264 C54.1345714,9.08701149 52.6817692,7.51413793 50.8224835,7.37708046 C50.6674176,7.36570115 50.5118498,7.35836782 50.356533,7.35836782 C47.9304286,7.35710345 45.5040733,7.3576092 43.0779689,7.35735632 C42.3563352,7.35735632 41.6798663,7.52627586 41.0746575,7.92885057 C39.9864359,8.65282759 39.4294029,9.68252874 39.4010495,10.9921609 C39.3837363,11.7854253 39.390511,12.5794483 39.399544,13.3727126 C39.4198681,15.2085747 40.7063132,16.5326207 42.2123095,16.9169885 C45.9509542,17.8710805 49.6845806,18.8476782 53.4101777,19.8531034 C55.0039945,20.2832414 56.4234249,21.0815632 57.6539158,22.2012874 C59.431152,23.8186667 60.5492326,25.8151034 61.0242161,28.177954 C61.1461612,28.7838391 61.2171703,29.398069 61.2186758,30.0165977 C61.2224396,31.1603448 61.2367418,32.3053563 61.2036209,33.4483448 C61.1569505,35.0485287 60.7514707,36.5662759 59.994207,37.9725057 C58.4227216,40.8911724 56.0282326,42.7424598 52.8140018,43.5005747 C52.0722949,43.6755632 51.3160348,43.7501609 50.5552582,43.7514253 C48.0282857,43.7557241 45.5010623,43.7648276 42.9743407,43.7506667 C37.799956,43.7215862 33.585826,40.0496092 32.555315,35.2131494 C32.397489,34.4727356 32.3214615,33.7214483 32.3214615,32.9635862 C32.3209597,31.6347356 32.3214615,30.3058851 32.3214615,28.9772874 C32.3204579,28.9044598 32.3204579,28.8311264 32.3204579,28.7228966 L32.3204579,28.7228966 Z" id="Shape"></path>
                        <path d="M117.743973,0.129218391 L118.016467,0.129218391 C121.714212,0.129218391 125.41246,0.130988506 129.110707,0.125172414 C129.31169,0.12491954 129.441163,0.176758621 129.567875,0.345172414 C132.597683,4.378 134.695339,8.85310345 135.850555,13.7747816 C136.159934,15.092 136.385758,16.4254023 136.540322,17.7711954 C136.675817,18.9528736 136.750339,20.1375862 136.774176,21.326092 C136.806042,22.9126207 136.719978,24.4925747 136.541326,26.0692414 C136.053295,30.3814943 134.809756,34.4608506 132.836806,38.3161609 C131.895119,40.156069 130.794101,41.8950805 129.55533,43.5463448 C129.437901,43.7026207 129.314451,43.7577471 129.121496,43.7574943 C125.404932,43.751931 121.68887,43.7531954 117.972306,43.7531954 L117.734187,43.7531954 C122.254183,40.1970345 125.457875,35.7186437 127.188692,30.2148506 C128.918255,24.7143448 128.921015,19.186023 127.196471,13.6850115 C125.469418,8.17590805 122.268485,3.69094253 117.743973,0.129218391 L117.743973,0.129218391 Z" id="Shape"></path>
                        <path d="M85.2812454,0.129218391 C80.7542234,3.68841379 77.5512839,8.1705977 75.823478,13.677931 C74.1001886,19.1705977 74.099185,24.6895632 75.8199652,30.1842529 C77.5472692,35.6986667 80.7509615,40.1821149 85.3266612,43.7236092 C85.2398443,43.7365057 85.1836392,43.7521839 85.1274341,43.7521839 C81.3647015,43.7534483 77.601467,43.751931 73.8387344,43.7569885 C73.67037,43.7574943 73.5735165,43.6925057 73.4781685,43.5658161 C71.9960092,41.5977011 70.7223608,39.5026437 69.6657546,37.2722989 C68.46713,34.7412874 67.5808956,32.1030575 67.0032875,29.3606437 C66.7395751,28.1081609 66.5506355,26.8435402 66.4196575,25.5688046 C66.2929451,24.3385747 66.2214341,23.1048046 66.2312198,21.8710345 C66.2864212,14.8350805 68.1805842,8.34634483 71.9919945,2.44073563 C72.4456502,1.738 72.9532527,1.07091954 73.4249744,0.379563218 C73.5519377,0.193954023 73.6921996,0.123149425 73.9210348,0.123655172 C77.6197839,0.131494253 81.318533,0.128965517 85.017533,0.128965517 C85.1051026,0.129218391 85.1929231,0.129218391 85.2812454,0.129218391 L85.2812454,0.129218391 Z" id="Shape"></path>
                    </g>
                </g>
            </g>
        </g>
    </g>
</svg>