<?xml version="1.0" encoding="UTF-8" standalone="no"?>
<svg width="121px" height="63px" viewBox="0 0 121 63" version="1.1" xmlns="http://www.w3.org/2000/svg" xmlns:xlink="http://www.w3.org/1999/xlink" xmlns:sketch="http://www.bohemiancoding.com/sketch/ns">
    <!-- Generator: Sketch 3.3.2 (12043) - http://www.bohemiancoding.com/sketch -->
    <title>udi_logo</title>
    <desc>Created with Sketch.</desc>
    <defs></defs>
    <g id="Page-1" stroke="none" stroke-width="1" fill="none" fill-rule="evenodd" sketch:type="MSPage">
        <g id="Artboard-1-Copy" sketch:type="MSArtboardGroup" transform="translate(-849.000000, -2471.000000)" fill="#FFFFFF">
            <g id="Other-costumers-Copy" sketch:type="MSLayerGroup" transform="translate(-1.000000, 2379.157288)">
                <g id="udi_logo" transform="translate(850.000000, 91.500000)" sketch:type="MSShapeGroup">
                    <g id="Group">
                        <path d="M0.316711136,0.494735686 L11.4081303,0.494735686 L11.4081303,51.3452463 L27.6677749,51.3452463 L27.6677749,0.495253691 L38.759978,0.495253691 C38.759978,1.65998866 38.7620686,2.80063638 38.7594553,3.94180211 C38.749525,8.52511321 38.739072,13.1086833 38.7262671,17.6922534 C38.7171207,21.0800082 38.6946467,24.4675041 38.6962147,27.8549999 C38.6977826,32.8195629 38.7432532,37.7843849 38.7192113,42.7489479 C38.6951694,47.618975 37.3017842,52.0608706 34.1251169,55.8291003 C29.9449614,60.7882243 24.5519963,63.1244283 18.0321976,62.6683246 C10.0016788,62.1070659 3.33397017,56.37974 1.14066902,48.5519026 C0.631346497,46.7337039 0.365840245,44.8787268 0.357739169,42.9983675 C0.335787865,37.9335704 0.352251343,32.8690324 0.349638092,27.8039763 C0.345979542,20.2322925 0.33970774,12.6603497 0.332913289,5.0886659 C0.331606664,3.74366507 0.322198962,2.39840525 0.316711136,1.05340443 C0.316188486,0.875728602 0.316711136,0.697793773 0.316711136,0.494735686 L0.316711136,0.494735686 Z" id="Shape"></path>
                        <path d="M93.0209888,37.5808088 C93.0332711,32.1008305 93.0136717,26.6208522 93.0102745,21.1408739 C93.0089679,18.9794967 92.9655879,16.8222635 92.3368399,14.727709 C90.4691497,8.50646502 86.3294996,4.27721056 80.5110973,1.53825741 C79.1493325,0.89696682 77.7133513,0.624237017 76.1838158,0.632007097 C69.1970293,0.668526472 62.2097201,0.648065262 55.2226722,0.648065262 L54.5879137,0.648065262 L54.5879137,62.5833718 C56.4514226,62.5833718 58.2759941,62.5924369 60.1005656,62.5815587 C64.7889983,62.5541045 69.4787377,62.5616155 74.1661251,62.4691516 C77.2325133,62.408804 80.1807825,61.7040577 82.8990857,60.267888 C89.1591272,56.960942 92.2602716,51.5977739 92.8806573,44.7468945 C93.0957278,42.3731351 93.0157623,39.9706264 93.0209888,37.5808088 L93.0209888,37.5808088 Z M81.711102,51.5946658 C76.6348629,51.5767946 71.5586238,51.5835287 66.482646,51.5827517 C66.4000673,51.5827517 66.3172272,51.5723916 66.1782023,51.5630675 L66.1782023,11.914163 L82.1788738,11.914163 L82.1788738,12.4482265 C82.1788738,25.2999386 82.1783512,38.1513917 82.1817484,51.0031038 C82.1817484,51.3366992 82.2162433,51.5964789 81.711102,51.5946658 L81.711102,51.5946658 Z" id="Shape"></path>
                        <path d="M120.50559,62.6828288 L109.286905,62.6828288 L109.286905,0.536176112 L120.50559,0.536176112 L120.50559,62.6828288 L120.50559,62.6828288 Z" id="Shape"></path>
                    </g>
                </g>
            </g>
        </g>
    </g>
</svg>