<?xml version="1.0" encoding="UTF-8" standalone="no"?>
<svg width="210px" height="82px" viewBox="0 0 210 82" version="1.1" xmlns="http://www.w3.org/2000/svg" xmlns:xlink="http://www.w3.org/1999/xlink" xmlns:sketch="http://www.bohemiancoding.com/sketch/ns">
    <!-- Generator: Sketch 3.3.2 (12043) - http://www.bohemiancoding.com/sketch -->
    <title>nmf_logo</title>
    <desc>Created with Sketch.</desc>
    <defs></defs>
    <g id="Page-1" stroke="none" stroke-width="1" fill="none" fill-rule="evenodd" sketch:type="MSPage">
        <g id="Artboard-1-Copy" sketch:type="MSArtboardGroup" transform="translate(-75.000000, -2458.000000)" fill="#FFFFFF">
            <g id="Other-costumers-Copy" sketch:type="MSLayerGroup" transform="translate(-1.000000, 2379.157288)">
                <g id="nmf_logo" transform="translate(76.000000, 79.000000)" sketch:type="MSShapeGroup">
                    <g id="Group">
                        <path d="M108.133575,62.63775 L108.133575,35.0707692 L108.91933,35.0707692 L108.91933,62.63775 L108.133575,62.63775 L108.133575,62.63775 Z" id="Shape"></path>
                        <path d="M69.7971987,8.20551923 C61.797567,3.02217308 52.274308,0 42.0477158,0 C31.6876786,0 22.0458891,3.09865385 13.9850298,8.40657692 C13.8060565,8.52090385 13.687526,8.70146154 13.6459226,8.91119231 C13.6043192,9.11855769 13.6490625,9.33144231 13.7691629,9.50569231 L15.0117708,11.3081154 C15.1632701,11.5280962 15.4050409,11.6455769 15.6507366,11.6455769 C15.797526,11.6455769 15.9458854,11.6037885 16.0777604,11.5170577 C23.5459673,6.61598077 32.4522396,3.75938462 42.0461458,3.75623077 C51.5073921,3.75938462 60.3037686,6.54107692 67.7068229,11.3223077 C68.0608445,11.5501731 68.5286868,11.4563462 68.7696726,11.1094231 L70.0146354,9.307 C70.1331659,9.13432692 70.1794792,8.91671154 70.1378757,8.70934615 C70.0978423,8.50276923 69.973817,8.31984615 69.7971987,8.20551923 L69.7971987,8.20551923 Z" id="Shape"></path>
                        <path d="M63.3808519,17.4849231 C57.206276,13.5702115 49.8895685,11.2939231 42.0453609,11.2923462 C34.0692783,11.2939231 26.639535,13.6482692 20.3966667,17.6875577 C20.2176935,17.8034615 20.0960231,17.9855962 20.0544196,18.1929615 C20.0128162,18.4003269 20.0575595,18.6155769 20.17766,18.7914038 L23.9172582,24.2097115 C24.0671875,24.4289038 24.3105283,24.5471731 24.5570089,24.5471731 C24.7006585,24.5471731 24.845093,24.50775 24.9746131,24.42575 C29.9136458,21.2774231 35.7593192,19.4450385 42.0445759,19.4332115 C48.2026674,19.4434615 53.9400149,21.2009423 58.8138951,24.231 C59.1671317,24.4517692 59.6279092,24.3555769 59.8641853,24.0125962 L63.6069234,18.5919231 C63.7254539,18.4176731 63.7701972,18.1976923 63.7285938,17.9903269 C63.6869903,17.78375 63.5598251,17.5976731 63.3808519,17.4849231 L63.3808519,17.4849231 Z" id="Shape"></path>
                        <path d="M60.5321949,74.0523077 L58.0359896,70.4356346 C57.9119643,70.2558654 57.7227865,70.1391731 57.5077046,70.1076346 C57.2934077,70.0760962 57.0783259,70.1344423 56.9087723,70.2700577 C52.830067,73.5350769 47.6720275,75.4936154 42.0461458,75.5062308 C36.3260677,75.4936154 31.0895313,73.4735769 26.9778571,70.1107885 C26.8098735,69.9728077 26.5924368,69.9120962 26.3773549,69.9420577 C26.163058,69.9728077 25.9699554,70.0926538 25.8459301,70.2716346 L23.3489397,73.8859423 C23.1150186,74.2265577 23.182526,74.6885962 23.5043638,74.9456346 C28.591756,79.0125192 35.0371466,81.4504423 42.0445759,81.4520192 C48.9546689,81.4504423 55.3152827,79.07875 60.3704911,75.1151538 C60.6970387,74.8596923 60.768471,74.3937115 60.5321949,74.0523077 L60.5321949,74.0523077 Z" id="Shape"></path>
                        <path d="M22.7774814,35.8135 C22.4799777,35.5154615 22.0678683,35.3435769 21.6439844,35.3435769 L20.0504948,35.3435769 C19.6281808,35.3435769 19.2168564,35.5154615 18.9169978,35.8135 C18.6179241,36.1146923 18.4483705,36.5286346 18.4483705,36.9528269 L18.4483705,53.1541346 L5.28991443,35.9719808 C4.98691592,35.5730192 4.51828869,35.3435769 4.01983259,35.3435769 L1.75440848,35.3435769 C1.33287946,35.3435769 0.919200149,35.5130962 0.620126488,35.8135 C0.322622768,36.1146923 0.149929315,36.5286346 0.149929315,36.9528269 L0.149929315,61.0600385 C0.149929315,61.4842308 0.322622768,61.8989615 0.620126488,62.1985769 C0.919985119,62.4981923 1.33287946,62.6700769 1.75440848,62.6700769 L3.34789807,62.6700769 C3.77570685,62.6700769 4.17839658,62.5037115 4.48218006,62.1985769 C4.78282366,61.8950192 4.9531622,61.48975 4.9531622,61.0600385 L4.9531622,43.6902308 L18.9429018,62.0416731 C19.2474702,62.4374808 19.7184524,62.6700769 20.2161235,62.6700769 L21.6424144,62.6700769 C22.0710082,62.6700769 22.472128,62.5037115 22.7759115,62.1985769 C23.07891,61.8950192 23.2453237,61.48975 23.2453237,61.0600385 L23.2453237,36.9536154 C23.2461086,36.5294231 23.0757701,36.1146923 22.7774814,35.8135 L22.7774814,35.8135 Z" id="Shape"></path>
                        <path d="M54.7124256,35.8135 C54.4157068,35.5154615 54.0035975,35.3435769 53.5789286,35.3435769 L51.986224,35.3435769 C51.3637426,35.3435769 50.7922842,35.7062692 50.5316741,36.2755385 L41.8255692,48.8294231 L33.0511719,36.2708077 C32.7882068,35.7039038 32.2230283,35.3443654 31.5989769,35.3443654 L29.8367188,35.3443654 C29.4144048,35.3443654 29.0030804,35.51625 28.7024368,35.8142885 C28.406503,36.1154808 28.2345945,36.5294231 28.2345945,36.9536154 L28.2345945,61.0631923 C28.2345945,61.4850192 28.406503,61.89975 28.7024368,62.2009423 C29.0038653,62.4989808 29.4144048,62.6708654 29.8367188,62.6708654 L31.4325632,62.6708654 C31.8595871,62.6708654 32.2622768,62.5045 32.5629204,62.2009423 C32.8674888,61.8934423 33.0354725,61.4905385 33.0354725,61.0631923 L33.0354725,45.5462692 L39.906317,54.9250192 C39.906317,54.9250192 40.7360305,55.8640769 41.3640067,55.8640769 L41.8703125,55.8640769 C42.4982887,55.8640769 43.3248624,54.9250192 43.3248624,54.9250192 L50.3833147,45.6913462 L50.3833147,61.0631923 C50.3833147,61.4850192 50.5552232,61.89975 50.8542969,62.2009423 C51.1502307,62.4989808 51.56391,62.6708654 51.985439,62.6708654 L53.5781436,62.6708654 C54.0059524,62.6708654 54.4094271,62.5045 54.7116406,62.2009423 C55.017779,61.8934423 55.1834077,61.4905385 55.1834077,61.0631923 L55.1834077,36.9536154 C55.1841927,36.5294231 55.0130692,36.1146923 54.7124256,35.8135 L54.7124256,35.8135 Z" id="Shape"></path>
                        <path d="M82.5623847,35.8135 C82.263311,35.5154615 81.8527716,35.3435769 81.4288876,35.3435769 L61.822686,35.3435769 C61.3988021,35.3435769 60.9866927,35.5154615 60.688404,35.8135 C60.3901153,36.1146923 60.2197768,36.5286346 60.2197768,36.9528269 L60.2197768,61.0600385 C60.2197768,61.4842308 60.3901153,61.8989615 60.688404,62.1985769 C60.9874777,62.4981923 61.3988021,62.6700769 61.822686,62.6700769 L63.5825893,62.6700769 C64.011968,62.6700769 64.4130878,62.5037115 64.7168713,62.1985769 C65.0182999,61.8950192 65.1870685,61.48975 65.1870685,61.0600385 L65.1870685,51.2074231 L77.9734487,51.2074231 C78.4012574,51.2074231 78.8055171,51.0394808 79.1069457,50.7343462 C79.4068043,50.43 79.5747879,50.0270962 79.5747879,49.5965962 L79.5747879,48.0795962 C79.5747879,47.6554038 79.4044494,47.2398846 79.1069457,46.9426346 C78.8070871,46.6422308 78.3949777,46.4703462 77.9734487,46.4703462 L65.1870685,46.4703462 L65.1870685,40.0775 L81.4281027,40.0798654 C81.8559115,40.0798654 82.2586012,39.9127115 82.5615997,39.6091538 C82.8630283,39.3040192 83.0325818,38.8979615 83.0325818,38.4706154 L83.0325818,36.9536154 C83.0333668,36.5294231 82.8614583,36.1146923 82.5623847,35.8135 L82.5623847,35.8135 Z" id="Shape"></path>
                        <g transform="translate(131.561012, 34.692308)" id="Shape">
                            <path d="M5.04578869,8.06675 L1.69239583,2.81401923 L1.71045015,8.06675 L0.730807292,8.06675 L0.730807292,0.827096154 L1.52833705,0.827096154 L4.88251488,6.07746154 L4.86446057,0.827096154 L5.84410342,0.827096154 L5.84410342,8.06675 L5.04578869,8.06675 L5.04578869,8.06675 Z"></path>
                            <path d="M11.9982701,8.19132692 C9.58370164,8.19132692 9.25872396,6.33765385 9.25872396,4.44534615 C9.25872396,2.55461538 9.58370164,0.699365385 11.9982701,0.699365385 C14.4191183,0.699365385 14.7362463,2.55461538 14.7362463,4.44534615 C14.7362463,6.33765385 14.4191183,8.19132692 11.9982701,8.19132692 L11.9982701,8.19132692 Z M11.9982701,1.66601923 C10.5076116,1.66601923 10.2964546,2.95042308 10.2964546,4.44534615 C10.2964546,5.94105769 10.5076116,7.22467308 11.9982701,7.22467308 C13.4865737,7.22467308 13.6985156,5.94105769 13.6985156,4.44534615 C13.6985156,2.95042308 13.4865737,1.66601923 11.9982701,1.66601923 L11.9982701,1.66601923 Z"></path>
                            <path d="M19.1579836,8.06675 L18.1492969,8.06675 L18.1492969,0.827096154 L20.4751637,0.827096154 C22.3300484,0.827096154 22.9070015,1.63605769 22.9070015,2.92992308 C22.9070015,3.87528846 22.6087128,4.56203846 21.7154167,4.88057692 C22.2429167,5.88507692 22.8865923,7.08275 23.3976079,8.06675 L22.1479353,8.06675 L20.677686,5.05482692 L19.1579836,5.05482692 L19.1579836,8.06675 L19.1579836,8.06675 Z M19.1579836,4.08896154 L20.6101786,4.08896154 C21.6675335,4.08896154 21.8213876,3.57646154 21.8213876,2.92992308 C21.8213876,2.30309615 21.6675335,1.79059615 20.6101786,1.79059615 L19.1579836,1.79059615 L19.1579836,4.08896154 L19.1579836,4.08896154 Z"></path>
                            <path d="M26.3773549,4.44534615 C26.3773549,2.38982692 27.0689137,0.699365385 29.2605506,0.699365385 C30.2299888,0.699365385 30.9144829,0.913038462 31.3658408,1.13538462 L31.3658408,2.15880769 C30.5000186,1.80084615 29.961529,1.66601923 29.2605506,1.66601923 C27.8852827,1.66601923 27.4150856,2.88340385 27.4150856,4.44534615 C27.4150856,6.00886538 27.8860677,7.22467308 29.2605506,7.22467308 C29.6828646,7.22467308 30.2119345,7.17815385 30.5282775,7.08196154 L30.5282775,5.05403846 L29.1153311,5.05403846 L29.1153311,4.08817308 L31.5377493,4.08817308 L31.5377493,7.74742308 C30.98984,7.99815385 30.2496131,8.19053846 29.2605506,8.19053846 C27.0689137,8.19132692 26.3773549,6.50244231 26.3773549,4.44534615 L26.3773549,4.44534615 Z"></path>
                            <path d="M39.1119271,4.80251923 L36.1047061,4.80251923 L36.1047061,7.10167308 L39.430625,7.10167308 L39.430625,8.06675 L35.0952344,8.06675 L35.0952344,0.827096154 L39.430625,0.827096154 L39.430625,1.79059615 L36.1047061,1.79059615 L36.1047061,3.83823077 L39.1119271,3.83823077 L39.1119271,4.80251923 L39.1119271,4.80251923 Z"></path>
                            <path d="M43.6694643,2.83451923 C43.6694643,3.61509615 44.2079539,3.70261538 45.1781771,3.83744231 C46.6288021,4.01169231 47.475785,4.48398077 47.475785,5.904 C47.475785,6.92663462 46.9372954,8.19053846 44.7448735,8.19053846 C44.0925632,8.19053846 43.1600186,7.99815385 42.6395833,7.75530769 L42.6395833,6.76026923 C43.3036682,7.02282692 43.6985082,7.22388462 44.7535082,7.22388462 C46.0432143,7.22388462 46.4168601,6.62623077 46.4168601,5.90321154 C46.4168601,5.12105769 46.0337946,4.93655769 44.994494,4.80173077 L45.0054836,4.80173077 C43.2746243,4.58017308 42.6395833,4.06846154 42.6395833,2.82348077 C42.6395833,1.95380769 43.0540476,0.698576923 45.1302939,0.698576923 C45.9937612,0.698576923 46.6484263,0.883076923 47.0997842,1.09517308 L47.0997842,2.12017308 C46.3124591,1.75038462 45.7826042,1.66523077 45.1302939,1.66523077 C43.9182999,1.66601923 43.6694643,2.21557692 43.6694643,2.83451923 L43.6694643,2.83451923 Z"></path>
                        </g>
                        <g transform="translate(131.561012, 44.942308)" id="Shape">
                            <path d="M4.45078125,6.70586538 L3.68151042,6.70586538 L1.67198661,2.04290385 L1.72065476,7.67251923 L0.730022321,7.67251923 L0.730022321,0.431288462 L1.95065104,0.431288462 L4.06457589,5.39307692 L6.17850074,0.431288462 L7.4006994,0.431288462 L7.4006994,7.67251923 L6.40928199,7.67251923 L6.45795015,2.04290385 L4.45078125,6.70586538 L4.45078125,6.70586538 Z"></path>
                            <path d="M15.1114621,5.23932692 L15.1114621,0.4305 L16.1201488,0.4305 L16.1201488,5.36390385 C16.1201488,7.46830769 14.399494,7.79630769 13.5156176,7.79630769 C12.6317411,7.79630769 10.9103013,7.46830769 10.9103013,5.36390385 L10.9103013,0.4305 L11.920558,0.4305 L11.920558,5.23932692 C11.920558,6.71611538 12.9684933,6.82255769 13.5156176,6.82255769 C14.0635268,6.82255769 15.1114621,6.71611538 15.1114621,5.23932692 L15.1114621,5.23932692 Z"></path>
                            <path d="M20.4563244,2.43871154 C20.4563244,3.22007692 20.994029,3.30838462 21.9650372,3.444 C23.4164472,3.61588462 24.2626451,4.08975 24.2626451,5.50819231 C24.2626451,6.53161538 23.7233705,7.79630769 21.5317336,7.79630769 C20.8786384,7.79630769 19.9468787,7.60392308 19.4264435,7.36265385 L19.4264435,6.36761538 C20.0905283,6.62780769 20.4853683,6.83201923 21.5411533,6.83201923 C22.8292894,6.83201923 23.2037202,6.23278846 23.2037202,5.50740385 C23.2037202,4.72682692 22.8206548,4.54232692 21.7821391,4.40828846 L21.7907738,4.40828846 C20.0606994,4.18594231 19.4256585,3.67265385 19.4256585,2.42767308 C19.4256585,1.558 19.8393378,0.305134615 21.916369,0.305134615 C22.7814063,0.305134615 23.4345015,0.488057692 23.8858594,0.700942308 L23.8858594,1.72436538 C23.0977493,1.35773077 22.5686793,1.27021154 21.916369,1.27021154 C20.704375,1.271 20.4563244,1.82213462 20.4563244,2.43871154 L20.4563244,2.43871154 Z"></path>
                            <path d="M27.8295499,7.67251923 L27.8295499,0.431288462 L28.8382366,0.431288462 L28.8382366,7.67251923 L27.8295499,7.67251923 L27.8295499,7.67251923 Z"></path>
                            <path d="M33.5943713,4.99648077 L33.5943713,7.67173077 L32.6060938,7.67173077 L32.6060938,0.4305 L33.5943713,0.4305 L33.5943713,3.68448077 L36.1423847,0.4305 L37.4681994,0.4305 L34.6525112,3.7515 L37.7280246,7.67251923 L36.4014249,7.67251923 L33.998631,4.52419231 L33.5943713,4.99648077 L33.5943713,4.99648077 Z"></path>
                            <path d="M41.7470722,4.99648077 L41.7470722,7.67173077 L40.7572247,7.67173077 L40.7572247,0.4305 L41.7470722,0.4305 L41.7470722,3.68448077 L44.2950856,0.4305 L45.6201153,0.4305 L42.8044271,3.7515 L45.8799405,7.67251923 L44.5533408,7.67251923 L42.1505469,4.52419231 L41.7470722,4.99648077 L41.7470722,4.99648077 Z"></path>
                            <path d="M51.1180469,7.79630769 C48.7050484,7.79630769 48.3792857,5.94342308 48.3792857,4.05111538 C48.3792857,2.15880769 48.7050484,0.305923077 51.1180469,0.305923077 C53.5396801,0.305923077 53.857593,2.15880769 53.857593,4.05111538 C53.858378,5.94342308 53.5396801,7.79630769 51.1180469,7.79630769 L51.1180469,7.79630769 Z M51.1180469,1.271 C49.6281734,1.271 49.4170164,2.55540385 49.4170164,4.05111538 C49.4170164,5.54761538 49.6281734,6.83201923 51.1180469,6.83201923 C52.6071354,6.83201923 52.8190774,5.54761538 52.8190774,4.05111538 C52.8190774,2.55540385 52.6071354,1.271 51.1180469,1.271 L51.1180469,1.271 Z"></path>
                            <path d="M58.2793304,7.67251923 L57.2706436,7.67251923 L57.2706436,0.431288462 L59.5965104,0.431288462 C61.4513951,0.431288462 62.0283482,1.24261538 62.0283482,2.53648077 C62.0283482,3.48184615 61.7308445,4.16780769 60.8359784,4.48555769 C61.3642634,5.49084615 62.008724,6.68694231 62.5189546,7.67330769 L61.269282,7.67330769 L59.7982478,4.66059615 L58.2793304,4.66059615 L58.2793304,7.67251923 L58.2793304,7.67251923 Z M58.2793304,3.69473077 L59.7315253,3.69473077 C60.7880952,3.69473077 60.9427344,3.18380769 60.9427344,2.53569231 C60.9427344,1.90886538 60.7880952,1.39636538 59.7315253,1.39636538 L58.2793304,1.39636538 L58.2793304,3.69473077 L58.2793304,3.69473077 Z"></path>
                            <path d="M66.6604576,7.67251923 L65.6431362,7.67251923 L65.6431362,0.431288462 L67.9297545,0.431288462 C69.7744345,0.431288462 70.4086905,1.50359615 70.4086905,2.67209615 C70.4086905,3.84926923 69.7736496,4.92 67.9297545,4.92 L66.6604576,4.92 L66.6604576,7.67251923 L66.6604576,7.67251923 Z M66.6604576,3.95571154 L67.9587984,3.95571154 C69.101715,3.95571154 69.312872,3.24925 69.312872,2.67130769 C69.312872,2.09178846 69.1025,1.39636538 67.9587984,1.39636538 L66.6604576,1.39636538 L66.6604576,3.95571154 L66.6604576,3.95571154 Z"></path>
                            <path d="M74.3618006,2.43871154 C74.3618006,3.22007692 74.8987202,3.30838462 75.8705134,3.444 C77.3211384,3.61588462 78.1681213,4.08975 78.1681213,5.50819231 C78.1681213,6.53161538 77.6272768,7.79630769 75.4372098,7.79630769 C74.7825446,7.79630769 73.850785,7.60392308 73.3319196,7.36265385 L73.3319196,6.36761538 C73.9960045,6.62780769 74.3908445,6.83201923 75.4458445,6.83201923 C76.7355506,6.83201923 77.1091964,6.23278846 77.1091964,5.50740385 C77.1091964,4.72682692 76.724561,4.54232692 75.6860454,4.40828846 L75.6978199,4.40828846 C73.9669606,4.18594231 73.3319196,3.67265385 73.3319196,2.42767308 C73.3319196,1.558 73.744029,0.305134615 75.8218452,0.305134615 C76.6860975,0.305134615 77.3407626,0.488057692 77.7913356,0.700942308 L77.7913356,1.72436538 C77.0032254,1.35773077 76.4749405,1.27021154 75.8218452,1.27021154 C74.6098512,1.271 74.3618006,1.82213462 74.3618006,2.43871154 L74.3618006,2.43871154 Z"></path>
                        </g>
                        <g transform="translate(131.561012, 54.403846)" id="Shape">
                            <path d="M4.66272321,4.80251923 L1.7512686,4.80251923 L1.7512686,8.06517308 L0.731592262,8.06517308 L0.731592262,0.825519231 L4.9900558,0.825519231 L4.9900558,1.78980769 L1.7512686,1.78980769 L1.7512686,3.83665385 L4.66272321,3.83665385 L4.66272321,4.80251923 L4.66272321,4.80251923 Z"></path>
                            <path d="M10.9016667,8.19132692 C8.48945313,8.19132692 8.16212054,6.33686538 8.16212054,4.44534615 C8.16212054,2.55303846 8.48945313,0.700153846 10.9016667,0.700153846 C13.3225149,0.700153846 13.6404278,2.55303846 13.6404278,4.44534615 C13.6404278,6.33765385 13.3225149,8.19132692 10.9016667,8.19132692 L10.9016667,8.19132692 Z M10.9016667,1.66601923 C9.41100818,1.66601923 9.19985119,2.94884615 9.19985119,4.44534615 C9.19985119,5.94184615 9.41022321,7.22467308 10.9016667,7.22467308 C12.3915402,7.22467308 12.6026972,5.94184615 12.6026972,4.44534615 C12.6026972,2.94884615 12.3915402,1.66601923 10.9016667,1.66601923 L10.9016667,1.66601923 Z"></path>
                            <path d="M18.0629501,8.06517308 L17.0526935,8.06517308 L17.0526935,0.825519231 L19.3801302,0.825519231 C21.2334449,0.825519231 21.811183,1.63605769 21.811183,2.92992308 C21.811183,3.87528846 21.5121094,4.56125 20.6195982,4.88057692 C21.1478832,5.8835 21.7915588,7.08117308 22.3010045,8.06517308 L21.0521168,8.06517308 L19.5810826,5.05403846 L18.0629501,5.05403846 L18.0629501,8.06517308 L18.0629501,8.06517308 Z M18.0629501,4.08896154 L19.5143601,4.08896154 C20.5709301,4.08896154 20.7247842,3.57803846 20.7247842,2.92992308 C20.7247842,2.30151923 20.5709301,1.78980769 19.5143601,1.78980769 L18.0629501,1.78980769 L18.0629501,4.08896154 L18.0629501,4.08896154 Z"></path>
                            <path d="M25.425971,0.825519231 L27.7800967,0.825519231 C29.5101711,0.825519231 30.0871243,1.722 30.0871243,2.81480769 C30.0871243,3.35490385 29.8469234,3.90446154 29.3845759,4.25217308 C30.0290365,4.57071154 30.3179055,5.25588462 30.3179055,5.96076923 C30.3179055,7.12848077 29.6828646,8.06517308 27.8389695,8.06517308 L25.426756,8.06517308 L25.426756,0.825519231 L25.425971,0.825519231 Z M27.8193452,1.78980769 L26.4440774,1.78980769 L26.4440774,3.83665385 L27.8954874,3.83665385 C28.7801488,3.83665385 29.0015104,3.31705769 29.0015104,2.81480769 C29.0015104,2.30151923 28.828817,1.78980769 27.8193452,1.78980769 L27.8193452,1.78980769 Z M26.4440774,7.09930769 L27.8758631,7.09930769 C29.0101451,7.09930769 29.2322917,6.52215385 29.2322917,5.96076923 C29.2322917,5.15890385 28.8759152,4.80251923 27.8947024,4.80251923 L26.4432924,4.80251923 L26.4432924,7.09930769 L26.4440774,7.09930769 Z"></path>
                            <path d="M37.7382292,5.63355769 L37.7382292,0.825519231 L38.7469159,0.825519231 L38.7469159,5.75813462 C38.7469159,7.86253846 37.0278311,8.19132692 36.1431696,8.19132692 C35.2585082,8.19132692 33.5394234,7.86253846 33.5394234,5.75813462 L33.5394234,0.825519231 L34.5481101,0.825519231 L34.5481101,5.63355769 C34.5481101,7.10955769 35.5952604,7.21521154 36.1431696,7.21521154 C36.6910789,7.21521154 37.7382292,7.10955769 37.7382292,5.63355769 L37.7382292,5.63355769 Z"></path>
                            <path d="M46.5730692,8.06517308 L43.2196763,2.81480769 L43.2369457,8.06517308 L42.2573028,8.06517308 L42.2573028,0.825519231 L43.0556176,0.825519231 L46.4090104,6.07667308 L46.3893862,0.825519231 L47.3713839,0.825519231 L47.3713839,8.06517308 L46.5730692,8.06517308 L46.5730692,8.06517308 Z"></path>
                            <path d="M50.9265141,8.06517308 L50.9265141,0.825519231 L52.9745015,0.825519231 C55.3576711,0.825519231 56.0382403,2.38903846 56.0382403,4.44534615 C56.0382403,6.50086538 55.3576711,8.06517308 52.9745015,8.06517308 L50.9265141,8.06517308 L50.9265141,8.06517308 Z M51.9359859,7.09930769 L53.01375,7.09930769 C54.5122582,7.09930769 54.9722507,5.98994231 54.9722507,4.44534615 C54.9722507,2.90075 54.5122582,1.78980769 53.01375,1.78980769 L51.9359859,1.78980769 L51.9359859,7.09930769 L51.9359859,7.09930769 Z"></path>
                        </g>
                    </g>
                </g>
            </g>
        </g>
    </g>
</svg>