<?xml version="1.0" encoding="UTF-8" standalone="no"?>
<svg width="172px" height="84px" viewBox="0 0 172 84" version="1.1" xmlns="http://www.w3.org/2000/svg" xmlns:xlink="http://www.w3.org/1999/xlink" xmlns:sketch="http://www.bohemiancoding.com/sketch/ns">
    <!-- Generator: Sketch 3.3.2 (12043) - http://www.bohemiancoding.com/sketch -->
    <title>tidal</title>
    <desc>Created with Sketch.</desc>
    <defs></defs>
    <g id="Page-1" stroke="none" stroke-width="1" fill="none" fill-rule="evenodd" sketch:type="MSPage">
        <g id="Artboard-1-Copy" sketch:type="MSArtboardGroup" transform="translate(-1188.000000, -2448.000000)" stroke="#000000" stroke-width="0.0938" fill="#FFFFFF">
            <g id="Other-costumers-Copy" sketch:type="MSLayerGroup" transform="translate(-1.000000, 2379.157288)">
                <g id="tidal" transform="translate(1190.000000, 69.000000)" sketch:type="MSShapeGroup">
                    <path d="M69.8251893,0 L69.9187887,0 C70.6327185,0.820621469 71.4397798,1.54745763 72.2002753,2.3329096 C73.9201652,4.05621469 75.651755,5.79124294 77.3716449,7.51454802 L77.3716449,7.60833333 C74.8680936,10.1053672 72.3757743,12.6258475 69.871989,15.1228814 C67.3565038,12.6141243 64.8527185,10.0936441 62.3372333,7.58488701 C62.4661666,7.33870056 62.7116311,7.17457627 62.89883,6.97528249 C65.2037164,4.64237288 67.5437027,2.34463277 69.8251893,0 L69.8251893,0 Z" id="Shape"></path>
                    <path d="M84.9181005,0 L85.0116999,0 C85.0821335,0.105508475 85.1520991,0.199293785 85.2456986,0.293079096 C87.6675843,2.69632768 90.0546043,5.13474576 92.4996559,7.52627119 C92.4411562,7.66694915 92.312457,7.76073446 92.2071576,7.86624294 C89.7855058,10.2812147 87.375086,12.7079096 84.9532003,15.1228814 C82.4260151,12.6258475 79.9456297,10.0819209 77.4067447,7.59661017 C79.8637302,5.02923729 82.449415,2.55564972 84.9181005,0 L84.9181005,0 Z" id="Shape"></path>
                    <path d="M100.011012,0 L100.104611,0 C100.572608,0.562711864 101.122505,1.04336158 101.625602,1.57090395 C103.520991,3.4700565 105.404914,5.35748588 107.300069,7.25663842 C107.393902,7.36214689 107.546001,7.4559322 107.580867,7.60833333 C105.041982,10.0819209 102.584997,12.6492938 100.034412,15.1228814 L92.8389539,7.91313559 C92.7219546,7.78418079 92.5698555,7.69039548 92.5113558,7.52627119 C93.7866483,6.28361582 95.026841,5.00579096 96.2904336,3.75141243 C97.5306263,2.4970339 98.7942189,1.27782486 100.011012,0 L100.011012,0 Z" id="Shape"></path>
                    <path d="M77.512044,22.5670904 C79.9807295,20.0935028 82.4611149,17.6199153 84.9298004,15.1346045 L85.0348658,15.1814972 C87.5152512,17.6785311 89.9956366,20.175565 92.4994219,22.6491525 C92.4177564,22.8367232 92.2422574,22.9422316 92.1133242,23.0946328 C90.3117688,24.8882768 88.5097454,26.7053672 86.707956,28.4990113 C86.1229594,29.0617232 85.5613627,29.694774 84.9649002,30.2223164 C84.1108052,29.4485876 83.3269098,28.5810734 82.4959807,27.7838983 C80.8114246,26.0957627 79.1383345,24.4076271 77.4418445,22.7312147 C77.4652443,22.684322 77.4886442,22.6139831 77.512044,22.5670904 L77.512044,22.5670904 Z" id="Shape"></path>
                    <path d="M0,55.0871469 L22.5106676,55.0871469 C22.5223675,56.8922797 22.5223675,58.6978814 22.5106676,60.4915254 L14.4026153,60.4915254 L14.4026153,81.8276836 C14.3909153,82.1793785 14.4260151,82.5310734 14.3558156,82.8827684 L8.09635237,82.8827684 C8.11975224,75.415113 8.10805231,67.9591808 8.10805231,60.4915254 L0,60.4915254 L0,55.0871469 L0,55.0871469 Z" id="Shape"></path>
                    <path d="M41.2890571,55.0871469 C43.3950447,55.0871469 45.5010323,55.0871469 47.60702,55.0988701 C47.59532,64.3601695 47.6304198,73.6214689 47.5836201,82.8827684 L41.3007571,82.8827684 C41.2656573,80.420904 41.2890571,77.9590395 41.2773572,75.4971751 C41.2890571,68.6977401 41.2773572,61.8983051 41.2890571,55.0871469 L41.2890571,55.0871469 Z" id="Shape"></path>
                    <path d="M152.684102,55.0871469 C154.790089,55.0871469 156.896077,55.0871469 159.002065,55.0988701 L159.002065,77.3025424 C162.664143,77.3257542 166.337922,77.3142655 170,77.3142655 L170,82.8827684 L152.695802,82.8827684 C152.660702,73.6214689 152.695802,64.3601695 152.684102,55.0871469 L152.684102,55.0871469 Z" id="Shape"></path>
                    <path d="M93.2952512,64.4070621 C92.6634549,62.2263192 91.4349621,60.245339 89.7267722,58.7564972 C87.4686855,56.7518362 84.5203028,55.6615819 81.5602202,55.2747175 C79.8871301,55.0285311 78.1906401,55.0988701 76.506084,55.0871469 L69.0298279,55.0871469 C68.8894288,55.0871469 68.7373297,55.0988701 68.5969305,55.1223164 C68.6320303,64.3015537 68.5969305,73.480791 68.6203304,82.6597938 C68.6086304,82.7184096 68.5969305,82.8239181 68.5852306,82.8825339 L79.395733,82.8825339 C80.3670613,82.7066864 81.3615554,82.7184096 82.3207158,82.5073927 C85.5966965,81.9095113 88.743978,80.2799915 90.8850654,77.6891723 C92.4645561,75.8134661 93.4356504,73.4568757 93.7515485,71.0304153 C94.0323469,68.8149718 93.9153476,66.540678 93.2952512,64.4070621 L93.2952512,64.4070621 Z M86.1699931,73.6331921 C85.3860977,74.8875706 84.2278045,75.8840395 82.8823125,76.4936441 C81.6655196,77.0563559 80.3200275,77.3142655 78.9860014,77.349435 C77.5820096,77.3613927 76.1780179,77.349435 74.7740262,77.3613927 C74.7038266,75.8019774 74.7623262,74.2427966 74.7389264,72.6838503 C74.7389264,68.6159124 74.7389264,64.5596977 74.7508603,60.4917599 L79.0915348,60.4917599 C81.267722,60.5386525 83.4790089,61.288935 85.0584997,62.8363927 C86.4741913,64.2080028 87.2697866,66.1423249 87.3984859,68.1000932 C87.5271851,70.0107345 87.1761872,71.9919492 86.1699931,73.6331921 L86.1699931,73.6331921 Z" id="Shape"></path>
                    <path d="M133.215416,76.3412429 C130.571232,69.905226 127.938747,63.4574859 125.271397,57.0331921 C125.025465,56.3884181 124.768183,55.7319209 124.475685,55.1105932 C122.299381,55.0754237 120.123427,55.0754237 117.947006,55.1105932 C114.226428,64.0788136 110.50585,73.0470339 106.785506,82.0035311 C106.668507,82.2966102 106.528107,82.5779661 106.469608,82.8827684 L113.197068,82.8827684 C113.863964,81.0305085 114.57766,79.2016949 115.244556,77.349435 C119.058734,77.2908192 122.884611,77.3377119 126.710489,77.3259887 C126.909387,77.2673729 126.967887,77.4786243 127.014687,77.6190678 C127.658183,79.3775424 128.313613,81.1242938 128.945175,82.8827684 L135.883469,82.8827684 C135.040606,80.6788136 134.104611,78.5217514 133.215416,76.3412429 L133.215416,76.3412429 Z M117.022712,72.4139831 C116.987612,72.1675621 117.139711,71.9567797 117.209911,71.7340395 C118.485203,68.3929379 119.795829,65.0518362 121.059188,61.7107345 C121.082588,61.6987768 121.129387,61.6872881 121.152787,61.6872881 C122.47488,65.2042373 123.820372,68.7092288 125.154164,72.226178 C125.154164,72.2730706 125.165864,72.3668559 125.165864,72.4139831 C122.45148,72.3905367 119.737096,72.3905367 117.022712,72.4139831 L117.022712,72.4139831 Z" id="Shape"></path>
                </g>
            </g>
        </g>
    </g>
</svg>